HIERARCHY
ROOT root
{
	OFFSET 0.000000 0.000000 0.000000
	CHANNELS 6 Xposition Yposition Zposition Zrotation Yrotation Xrotation
	JOINT lhip
	{
		OFFSET 0.058581 -0.082280 -0.017664
		CHANNELS 3 Zrotation Yrotation Xrotation
		JOINT lknee
		{
			OFFSET 0.043451 -0.386469 0.008037
			CHANNELS 3 Zrotation Yrotation Xrotation
			JOINT lankle
			{
				OFFSET -0.014790 -0.426874 -0.037428
				CHANNELS 3 Zrotation Yrotation Xrotation
				JOINT ltoe
				{
					OFFSET 0.041054 -0.060286 0.122042
					CHANNELS 3 Zrotation Yrotation Xrotation
					End Site
					{
						OFFSET 0.000000 0.000000 0.000000
					}
				}
			}
		}
	}
	JOINT rhip
	{
		OFFSET -0.060310 -0.090513 -0.013543
		CHANNELS 3 Zrotation Yrotation Xrotation
		JOINT rknee
		{
			OFFSET -0.043257 -0.383688 -0.004843
			CHANNELS 3 Zrotation Yrotation Xrotation
			JOINT rankle
			{
				OFFSET 0.019056 -0.420046 -0.034562
				CHANNELS 3 Zrotation Yrotation Xrotation
				JOINT rtoe
				{
					OFFSET -0.034840 -0.062106 0.130323
					CHANNELS 3 Zrotation Yrotation Xrotation
					End Site
					{
						OFFSET 0.000000 0.000000 0.000000
					}
				}
			}
		}
	}
	JOINT lowerback
	{
		OFFSET 0.004439 0.124404 -0.038385
		CHANNELS 3 Zrotation Yrotation Xrotation
		JOINT upperback
		{
			OFFSET 0.004488 0.137956 0.026820
			CHANNELS 3 Zrotation Yrotation Xrotation
			JOINT chest
			{
				OFFSET -0.002265 0.056032 0.002855
				CHANNELS 3 Zrotation Yrotation Xrotation
				JOINT lowerneck
				{
					OFFSET -0.013390 0.211636 -0.033468
					CHANNELS 3 Zrotation Yrotation Xrotation
					JOINT upperneck
					{
						OFFSET 0.010113 0.088937 0.050410
						CHANNELS 3 Zrotation Yrotation Xrotation
						End Site
						{
							OFFSET 0.000000 0.000000 0.000000
						}
					}
				}
				JOINT lclavicle
				{
					OFFSET 0.071702 0.114000 -0.018898
					CHANNELS 3 Zrotation Yrotation Xrotation
					JOINT lshoulder
					{
						OFFSET 0.122921 0.045205 -0.019046
						CHANNELS 3 Zrotation Yrotation Xrotation
						JOINT lelbow
						{
							OFFSET 0.255332 -0.015649 -0.022946
							CHANNELS 3 Zrotation Yrotation Xrotation
							JOINT lwrist
							{
								OFFSET 0.265709 0.012698 -0.007375
								CHANNELS 3 Zrotation Yrotation Xrotation
								End Site
								{
									OFFSET 0.000000 0.000000 0.000000
								}
							}
						}
					}
				}
				JOINT rclavicle
				{
					OFFSET -0.082954 0.112472 -0.023707
					CHANNELS 3 Zrotation Yrotation Xrotation
					JOINT rshoulder
					{
						OFFSET -0.113228 0.046853 -0.008472
						CHANNELS 3 Zrotation Yrotation Xrotation
						JOINT relbow
						{
							OFFSET -0.260127 -0.014369 -0.031269
							CHANNELS 3 Zrotation Yrotation Xrotation
							JOINT rwrist
							{
								OFFSET -0.269108 0.006794 -0.006027
								CHANNELS 3 Zrotation Yrotation Xrotation
								End Site
								{
									OFFSET 0.000000 0.000000 0.000000
								}
							}
						}
					}
				}
			}
		}
	}
}
MOTION
Frames: 10
Frame Time: 0.033333
-0.944835 0.628331 0.549629 91.398827 -0.438577 48.511070 26.289650 7.143939 -45.078813 -9.005605 5.314528 88.680191 -3.818074 -3.157042 -14.391573 0.000000 -0.000000 0.000000 -22.425370 -7.683594 -49.825381 -2.464516 -1.939822 93.682539 2.008593 -6.149558 -6.749614 0.000000 -0.000000 0.000000 -3.417029 2.360461 51.640000 2.280877 0.200481 5.738799 0.804440 -0.588902 -2.108889 -0.030333 -0.183249 -18.280039 5.215801 -3.857191 7.641756 -31.348653 -9.608047 1.918385 -44.004471 -12.504212 3.658499 72.535709 -76.109206 -54.557503 16.935574 -21.746486 -9.535552 34.419750 17.330701 5.871056 39.591902 16.105731 4.810749 -65.606131 70.066342 -49.767083 15.653766 18.522141 11.535391 
-0.945420 0.628825 0.548896 92.024881 -0.364639 48.031967 26.411017 5.904948 -44.879711 -8.228708 5.960415 88.533650 -4.053235 -3.896253 -14.208175 0.000000 -0.000000 0.000000 -22.857904 -7.641158 -49.163334 -3.533139 -1.745369 93.664239 2.073886 -5.541335 -6.684138 0.000000 -0.000000 0.000000 -3.842525 2.770916 50.864506 2.158920 0.284116 6.286581 0.617840 -0.572276 -2.310576 -0.023369 -0.129903 -18.354976 5.277908 -4.847812 8.038790 -31.686166 -8.350484 1.673417 -44.782731 -14.711775 4.123883 78.335879 -74.222913 -67.235208 7.968069 -17.578918 -23.746928 35.472218 15.946635 5.563733 40.122846 16.922304 6.233117 -72.200361 67.197626 -61.471559 14.851064 19.023509 1.049798 
-0.945929 0.629225 0.548681 92.262799 0.653629 47.451465 26.389026 5.513955 -44.952927 -8.232017 4.980569 88.839073 -3.804393 -4.271304 -14.481137 0.000000 -0.000000 0.000000 -22.308871 -7.678826 -48.188439 -4.461942 -1.708733 93.703757 2.248806 -4.993230 -6.692013 0.000000 -0.000000 0.000000 -3.155865 2.494110 50.730890 1.970970 0.571108 5.708909 0.235804 -0.149295 -1.800670 -0.498160 -0.416909 -18.234545 5.604073 -6.636018 7.562734 -32.119046 -6.991250 1.358918 -46.215930 -16.315468 4.756990 88.937638 -73.697481 -83.429762 1.195357 -17.381555 -41.178223 36.025889 13.649049 4.825355 41.341900 16.831773 7.346664 -87.346209 66.008034 -79.336960 9.822615 18.619200 -7.753366 
-0.948944 0.630452 0.548272 92.794057 0.312404 47.775888 26.281044 5.130660 -45.372234 -8.133803 6.135225 88.487480 -3.618732 -4.521457 -14.161713 0.000000 -0.000000 0.000000 -23.048372 -7.562137 -48.700519 -4.419490 -1.830207 93.548668 2.437122 -5.123116 -6.558144 0.000000 -0.000000 0.000000 -3.819438 3.030086 50.386308 1.731227 1.401163 4.003459 -0.379318 -0.347802 -0.888179 0.323569 0.115596 -20.838060 4.519156 -8.040932 10.560742 -32.793549 -3.541950 -0.025354 -47.353294 -18.767585 5.435061 108.814860 -73.739868 -103.353981 2.166618 -19.277438 -44.103407 36.505573 9.935625 2.882303 44.435880 16.572957 9.620640 -106.406819 63.551823 -97.594073 8.546775 21.495056 -12.467014 
-0.949850 0.631470 0.548777 93.149005 0.648551 47.849035 26.387536 4.638885 -45.659527 -7.672654 6.577064 88.332084 -3.319352 -4.885209 -14.029377 0.000000 -0.000000 0.000000 -23.110050 -7.885268 -48.637987 -4.252609 -1.709656 93.640501 2.127843 -4.530790 -6.355017 0.000000 -0.000000 0.000000 -3.702462 2.888808 49.145831 1.724243 1.423504 4.216377 -0.744019 -0.563161 -0.291110 0.427024 -0.200533 -20.925012 4.124975 -7.966048 11.181585 -33.503923 -2.158686 -0.788881 -47.403892 -19.067040 5.503633 121.348791 -71.955780 -115.329190 3.003611 -19.387600 -42.268138 36.773077 8.116353 2.067019 45.305957 17.090706 10.082772 -114.786927 62.618873 -106.128645 9.252464 21.903670 -12.552506 
-0.951272 0.631246 0.550690 92.523972 0.390845 47.522701 26.493072 5.488593 -44.880450 -7.520889 6.374616 88.169692 -3.677451 -5.286371 -13.931383 0.000000 -0.000000 0.000000 -22.686967 -7.014396 -48.434077 -4.996735 -1.673640 93.212713 2.564447 -4.593772 -6.698638 0.000000 -0.000000 0.000000 -4.434575 3.262716 49.041082 1.296839 1.983235 2.636874 -0.851723 -0.251288 0.452068 0.572127 -0.263292 -20.313883 4.098773 -8.221369 12.217102 -33.595578 -0.003959 -1.415474 -47.078586 -18.647554 5.612867 134.736540 -69.220743 -127.415838 2.820392 -19.359329 -40.823110 36.820477 6.407366 0.903450 46.616393 16.218628 11.017484 -125.056282 61.335807 -115.624662 12.251928 22.589254 -14.095066 
-0.952956 0.632624 0.550467 92.648459 0.608416 47.353992 26.567989 5.184123 -44.935506 -7.716604 6.532077 88.138267 -3.553263 -5.314758 -13.664245 0.000000 -0.000000 0.000000 -22.963634 -7.074044 -48.168383 -5.010186 -2.017967 93.011289 2.599278 -4.394115 -6.625259 0.000000 -0.000000 0.000000 -4.764524 3.457946 47.676871 1.586531 2.108968 3.521792 -1.005008 -0.270759 0.526017 0.839751 -0.348090 -19.823512 3.562820 -8.329731 12.778054 -33.695391 1.110940 -1.450660 -45.997336 -18.112108 5.778811 143.401494 -66.671593 -135.199923 1.967220 -20.833332 -40.959077 36.790388 6.150757 0.825163 46.287807 15.312568 11.925130 -133.040786 59.001862 -122.477816 16.665541 24.094596 -16.398298 
-0.954504 0.633704 0.550446 92.450904 0.562249 47.121553 26.611378 5.202833 -44.642875 -8.105286 6.612072 87.994064 -2.910803 -4.956107 -13.774886 0.000000 -0.000000 0.000000 -23.144836 -6.979858 -47.893443 -4.889406 -2.313934 92.613959 2.537501 -4.365486 -6.218956 0.000000 -0.000000 0.000000 -5.146846 3.516905 46.582447 1.623531 2.193783 4.533063 -1.181214 -0.204743 0.426909 0.876971 -0.903885 -19.695487 3.504550 -8.022057 13.131534 -33.651088 2.023073 -1.219906 -43.921125 -17.273475 5.783012 150.999951 -63.961229 -142.133879 1.699489 -21.552002 -42.458590 36.518285 5.953538 0.986020 45.184655 14.597976 12.551516 -140.880959 57.528990 -129.887697 22.791606 27.296930 -20.073365 
-0.956091 0.635103 0.549917 92.303327 0.588762 46.672664 26.821673 4.979317 -44.258111 -8.434704 6.839024 87.907837 -2.782486 -4.599801 -13.628544 0.000000 -0.000000 0.000000 -23.237771 -6.886445 -47.465238 -4.286289 -2.488127 92.230372 2.620561 -4.742318 -5.681173 0.000000 -0.000000 0.000000 -5.435319 3.554951 46.697089 1.607660 2.675614 4.084929 -1.210250 -0.303245 0.753997 1.089284 -1.257814 -20.328901 3.152562 -7.866873 14.683570 -33.648106 3.358066 -1.152503 -41.136111 -16.526982 6.374089 157.850149 -60.967850 -151.301287 -3.426864 -24.038825 -41.850588 36.267850 5.366975 0.594838 44.131603 13.913792 14.105970 -147.920343 55.810508 -138.904716 31.162823 31.356898 -22.698180 
-0.958333 0.636305 0.549663 91.843642 0.640883 46.159016 27.039138 4.864293 -43.721280 -8.575398 6.772934 87.835040 -2.796996 -4.145703 -13.684758 0.000000 -0.000000 0.000000 -23.175028 -6.728612 -47.088799 -4.048745 -2.794465 91.998681 2.955917 -4.917933 -5.369161 0.000000 -0.000000 0.000000 -5.716952 3.621813 46.426250 1.707358 3.260323 4.742367 -1.147181 -0.491515 0.775556 1.334293 -1.221908 -21.156998 2.710640 -7.864009 15.794370 -33.334415 4.752263 -0.909483 -39.017430 -15.241895 7.873832 165.358511 -56.268622 -159.414885 -9.470228 -27.475860 -45.164572 36.023579 5.099212 0.252889 42.376428 13.283340 16.588611 -155.543675 54.091508 -148.520304 38.526944 36.326220 -27.692987 
